<?xml version="1.0" encoding="iso-8859-1"?>
<!-- Generator: Adobe Illustrator 24.0.3, SVG Export Plug-In . SVG Version: 6.00 Build 0)  -->
<svg version="1.1" xmlns="http://www.w3.org/2000/svg" xmlns:xlink="http://www.w3.org/1999/xlink" x="0px" y="0px"
	 viewBox="0 0 64 64" style="enable-background:new 0 0 64 64;" xml:space="preserve">
<g id="calendar-time">
	<path style="fill:#ABD8C7;" d="M50.391,8.062v5.659H1.746V8.062c0-0.973,0.786-1.75,1.746-1.75h5.97v3.473h1.746V6.312h6.121v3.473
		h1.746V6.312h6.121v3.473h1.746V6.312h6.121v3.473h1.746V6.312h6.121v3.473h1.746V6.312h5.974
		C49.605,6.312,50.391,7.089,50.391,8.062z"/>
	<path style="fill:#ABD8C7;" d="M46.78,29.848c-8.532,0-15.475,6.942-15.475,15.475c0,8.532,6.942,15.475,15.475,15.475
		s15.475-6.942,15.475-15.475C62.254,36.79,55.312,29.848,46.78,29.848z M53.047,46.198h-3.944
		c-0.355,0.942-1.257,1.617-2.323,1.617c-1.373,0-2.492-1.119-2.492-2.492c0-1.066,0.675-1.968,1.617-2.323v-7.933h1.75V43
		c0.666,0.249,1.199,0.782,1.448,1.448h3.944V46.198z"/>
	<g>
		<path style="fill:#9AC1B1;" d="M47.668,29.848c-0.525,0-1.043,0.027-1.555,0.078c7.805,0.782,13.92,7.389,13.92,15.397
			c0,8.008-6.115,14.614-13.92,15.397c0.511,0.051,1.03,0.078,1.555,0.078c8.532,0,15.475-6.942,15.475-15.475
			C63.143,36.79,56.2,29.848,47.668,29.848z"/>
	</g>
	<path style="fill:#47705D;" d="M48.645,4.566h-5.974V1.457h-1.746v3.109h-6.121V1.457h-1.746v3.109h-6.121V1.457h-1.746v3.109
		h-6.121V1.457h-1.746v3.109h-6.121V1.457H9.461v3.109h-5.97C1.563,4.566,0,6.129,0,8.062v38.722c0,1.919,1.563,3.491,3.491,3.491
		h24.22c-0.151-0.577-0.271-1.155-0.369-1.746H3.491c-0.959,0-1.746-0.786-1.746-1.746V15.466h48.645v10.496
		c0.591,0.098,1.168,0.235,1.746,0.404V8.062C52.136,6.129,50.564,4.566,48.645,4.566z M50.391,13.72H1.746V8.062
		c0-0.973,0.786-1.75,1.746-1.75h5.97v3.473h1.746V6.312h6.121v3.473h1.746V6.312h6.121v3.473h1.746V6.312h6.121v3.473h1.746V6.312
		h6.121v3.473h1.746V6.312h5.974c0.959,0,1.746,0.777,1.746,1.75V13.72z M14.111,27.903v1.746h5.694v-1.746H14.111z M14.111,34.014
		v1.746h5.694v-1.746H14.111z M14.111,20.916v1.746h5.694v-1.746H14.111z M41.778,20.916v1.746h5.703v-1.746H41.778z M32.557,20.916
		v1.746h5.703v-1.746H32.557z M32.557,27.903v1.746h2.296c0.857-0.657,1.772-1.239,2.741-1.746H32.557z M23.337,41.001v1.746h3.918
		c0.071-0.595,0.178-1.168,0.306-1.746H23.337z M23.337,34.014v1.746h5.694v-1.746H23.337z M23.337,27.903v1.746h5.694v-1.746
		H23.337z M23.337,20.916v1.746h5.694v-1.746H23.337z M4.89,20.916v1.746h5.694v-1.746H4.89z M4.89,27.903v1.746h5.694v-1.746H4.89z
		 M4.89,34.014v1.746h5.694v-1.746H4.89z M49.103,44.448c-0.249-0.666-0.782-1.199-1.448-1.448v-7.933h-1.75V43
		c-0.942,0.355-1.617,1.257-1.617,2.323c0,1.373,1.119,2.492,2.492,2.492c1.066,0,1.968-0.675,2.323-1.617h3.944v-1.75H49.103z
		 M46.78,46.069c-0.409,0-0.746-0.338-0.746-0.746c0-0.409,0.338-0.746,0.746-0.746c0.409,0,0.746,0.338,0.746,0.746
		C47.526,45.731,47.188,46.069,46.78,46.069z M49.103,44.448c-0.249-0.666-0.782-1.199-1.448-1.448v-7.933h-1.75V43
		c-0.942,0.355-1.617,1.257-1.617,2.323c0,1.373,1.119,2.492,2.492,2.492c1.066,0,1.968-0.675,2.323-1.617h3.944v-1.75H49.103z
		 M46.78,46.069c-0.409,0-0.746-0.338-0.746-0.746c0-0.409,0.338-0.746,0.746-0.746c0.409,0,0.746,0.338,0.746,0.746
		C47.526,45.731,47.188,46.069,46.78,46.069z M46.78,28.102c-9.496,0-17.22,7.724-17.22,17.22c0,9.496,7.724,17.22,17.22,17.22
		S64,54.819,64,45.323C64,35.827,56.276,28.102,46.78,28.102z M46.78,60.798c-8.532,0-15.475-6.942-15.475-15.475
		c0-8.532,6.942-15.475,15.475-15.475s15.475,6.942,15.475,15.475C62.254,53.855,55.312,60.798,46.78,60.798z M47.655,43v-7.933
		h-1.75V43c-0.942,0.355-1.617,1.257-1.617,2.323c0,1.373,1.119,2.492,2.492,2.492c1.066,0,1.968-0.675,2.323-1.617h3.944v-1.75
		h-3.944C48.854,43.782,48.321,43.249,47.655,43z M46.78,46.069c-0.409,0-0.746-0.338-0.746-0.746c0-0.409,0.338-0.746,0.746-0.746
		c0.409,0,0.746,0.338,0.746,0.746C47.526,45.731,47.188,46.069,46.78,46.069z M49.103,44.448c-0.249-0.666-0.782-1.199-1.448-1.448
		v-7.933h-1.75V43c-0.942,0.355-1.617,1.257-1.617,2.323c0,1.373,1.119,2.492,2.492,2.492c1.066,0,1.968-0.675,2.323-1.617h3.944
		v-1.75H49.103z M46.78,46.069c-0.409,0-0.746-0.338-0.746-0.746c0-0.409,0.338-0.746,0.746-0.746c0.409,0,0.746,0.338,0.746,0.746
		C47.526,45.731,47.188,46.069,46.78,46.069z M49.103,44.448c-0.249-0.666-0.782-1.199-1.448-1.448v-7.933h-1.75V43
		c-0.942,0.355-1.617,1.257-1.617,2.323c0,1.373,1.119,2.492,2.492,2.492c1.066,0,1.968-0.675,2.323-1.617h3.944v-1.75H49.103z
		 M46.78,46.069c-0.409,0-0.746-0.338-0.746-0.746c0-0.409,0.338-0.746,0.746-0.746c0.409,0,0.746,0.338,0.746,0.746
		C47.526,45.731,47.188,46.069,46.78,46.069z"/>
</g>
<g id="Layer_1">
</g>
</svg>
